# xmcd
# Copyright (C) 1995-1998 Ti Kan
#
# Track frame offsets:
#       150
#       22192
#       51924
#       77536
#       87825
#       96796
#
# Disc length: 1382 seconds
#
# Revision: 0
# Processed by: cddbd v1.5.2PL0 Copyright (c) Steve Scherf et al.
# Submitted via: CD-Transfer v1.0
#
DISCID=40056406
DTITLE=Alog - Islands Of Memory
DYEAR=06
DGENRE=
TTITLE0=Islands Of Memory
TTITLE1=3 Solitaires
TTITLE2=The Method
TTITLE3=Something Like Islands Of Memory
TTITLE4=Bad Luck Bird
TTITLE5=String
EXTD=
EXTT0=
EXTT1=
EXTT2=
EXTT3=
EXTT4=
EXTT5=
PLAYORDER=
